<svg version="1.1" id="el_aRj7HO69u" xmlns="http://www.w3.org/2000/svg" xmlns:xlink="http://www.w3.org/1999/xlink" x="0px" y="0px" viewBox="0 0 512 512" style="enable-background:new 0 0 512 512;" xml:space="preserve"><style>@-webkit-keyframes kf_el_jQ9vRoBTiJ_an_2u_m8FGWf{0%{-webkit-transform: translate(294.5px, 256px) rotate(0deg) translate(-294.5px, -256px);transform: translate(294.5px, 256px) rotate(0deg) translate(-294.5px, -256px);}16.67%{-webkit-transform: translate(294.5px, 256px) rotate(45deg) translate(-294.5px, -256px);transform: translate(294.5px, 256px) rotate(45deg) translate(-294.5px, -256px);}33.33%{-webkit-transform: translate(294.5px, 256px) rotate(0deg) translate(-294.5px, -256px);transform: translate(294.5px, 256px) rotate(0deg) translate(-294.5px, -256px);}50%{-webkit-transform: translate(294.5px, 256px) rotate(-45deg) translate(-294.5px, -256px);transform: translate(294.5px, 256px) rotate(-45deg) translate(-294.5px, -256px);}66.67%{-webkit-transform: translate(294.5px, 256px) rotate(0deg) translate(-294.5px, -256px);transform: translate(294.5px, 256px) rotate(0deg) translate(-294.5px, -256px);}83.33%{-webkit-transform: translate(294.5px, 256px) rotate(45deg) translate(-294.5px, -256px);transform: translate(294.5px, 256px) rotate(45deg) translate(-294.5px, -256px);}100%{-webkit-transform: translate(294.5px, 256px) rotate(-45deg) translate(-294.5px, -256px);transform: translate(294.5px, 256px) rotate(-45deg) translate(-294.5px, -256px);}}@keyframes kf_el_jQ9vRoBTiJ_an_2u_m8FGWf{0%{-webkit-transform: translate(294.5px, 256px) rotate(0deg) translate(-294.5px, -256px);transform: translate(294.5px, 256px) rotate(0deg) translate(-294.5px, -256px);}16.67%{-webkit-transform: translate(294.5px, 256px) rotate(45deg) translate(-294.5px, -256px);transform: translate(294.5px, 256px) rotate(45deg) translate(-294.5px, -256px);}33.33%{-webkit-transform: translate(294.5px, 256px) rotate(0deg) translate(-294.5px, -256px);transform: translate(294.5px, 256px) rotate(0deg) translate(-294.5px, -256px);}50%{-webkit-transform: translate(294.5px, 256px) rotate(-45deg) translate(-294.5px, -256px);transform: translate(294.5px, 256px) rotate(-45deg) translate(-294.5px, -256px);}66.67%{-webkit-transform: translate(294.5px, 256px) rotate(0deg) translate(-294.5px, -256px);transform: translate(294.5px, 256px) rotate(0deg) translate(-294.5px, -256px);}83.33%{-webkit-transform: translate(294.5px, 256px) rotate(45deg) translate(-294.5px, -256px);transform: translate(294.5px, 256px) rotate(45deg) translate(-294.5px, -256px);}100%{-webkit-transform: translate(294.5px, 256px) rotate(-45deg) translate(-294.5px, -256px);transform: translate(294.5px, 256px) rotate(-45deg) translate(-294.5px, -256px);}}@-webkit-keyframes kf_el_fbB0CYEZbJ_an_w9fF3PbGC{0%{-webkit-transform: translate(256px, 256px) rotate(0deg) translate(-256px, -256px);transform: translate(256px, 256px) rotate(0deg) translate(-256px, -256px);}16.67%{-webkit-transform: translate(256px, 256px) rotate(45deg) translate(-256px, -256px);transform: translate(256px, 256px) rotate(45deg) translate(-256px, -256px);}33.33%{-webkit-transform: translate(256px, 256px) rotate(0deg) translate(-256px, -256px);transform: translate(256px, 256px) rotate(0deg) translate(-256px, -256px);}50%{-webkit-transform: translate(256px, 256px) rotate(-45deg) translate(-256px, -256px);transform: translate(256px, 256px) rotate(-45deg) translate(-256px, -256px);}66.67%{-webkit-transform: translate(256px, 256px) rotate(0deg) translate(-256px, -256px);transform: translate(256px, 256px) rotate(0deg) translate(-256px, -256px);}83.33%{-webkit-transform: translate(256px, 256px) rotate(45deg) translate(-256px, -256px);transform: translate(256px, 256px) rotate(45deg) translate(-256px, -256px);}100%{-webkit-transform: translate(256px, 256px) rotate(-45deg) translate(-256px, -256px);transform: translate(256px, 256px) rotate(-45deg) translate(-256px, -256px);}}@keyframes kf_el_fbB0CYEZbJ_an_w9fF3PbGC{0%{-webkit-transform: translate(256px, 256px) rotate(0deg) translate(-256px, -256px);transform: translate(256px, 256px) rotate(0deg) translate(-256px, -256px);}16.67%{-webkit-transform: translate(256px, 256px) rotate(45deg) translate(-256px, -256px);transform: translate(256px, 256px) rotate(45deg) translate(-256px, -256px);}33.33%{-webkit-transform: translate(256px, 256px) rotate(0deg) translate(-256px, -256px);transform: translate(256px, 256px) rotate(0deg) translate(-256px, -256px);}50%{-webkit-transform: translate(256px, 256px) rotate(-45deg) translate(-256px, -256px);transform: translate(256px, 256px) rotate(-45deg) translate(-256px, -256px);}66.67%{-webkit-transform: translate(256px, 256px) rotate(0deg) translate(-256px, -256px);transform: translate(256px, 256px) rotate(0deg) translate(-256px, -256px);}83.33%{-webkit-transform: translate(256px, 256px) rotate(45deg) translate(-256px, -256px);transform: translate(256px, 256px) rotate(45deg) translate(-256px, -256px);}100%{-webkit-transform: translate(256px, 256px) rotate(-45deg) translate(-256px, -256px);transform: translate(256px, 256px) rotate(-45deg) translate(-256px, -256px);}}#el_aRj7HO69u *{-webkit-animation-duration: 3s;animation-duration: 3s;-webkit-animation-iteration-count: infinite;animation-iteration-count: infinite;-webkit-animation-timing-function: cubic-bezier(0, 0, 1, 1);animation-timing-function: cubic-bezier(0, 0, 1, 1);}#el_9lllqpXl0F{fill: #FEDB41;}#el_0mkrdrtxKI{fill: #FFCC33;}#el_Mbx0AJC81W{fill: #FEA832;}#el_hLt414_5WM{fill: #FE9923;}#el_fbB0CYEZbJ{fill: #FEDB41;}#el_jQ9vRoBTiJ{fill: #FFCC33;}#el_Mbx0AJC81W_an_dJLvINbAU{-webkit-transform: translate(256px, 256px) rotate(1080deg) translate(-256px, -256px);transform: translate(256px, 256px) rotate(1080deg) translate(-256px, -256px);}#el_9lllqpXl0F_an_80KLCMU6Q{-webkit-transform: translate(256px, 256px) rotate(1080deg) translate(-256px, -256px);transform: translate(256px, 256px) rotate(1080deg) translate(-256px, -256px);}#el_fbB0CYEZbJ_an_PCPFdzF-B{-webkit-transform: translate(256px, 256px) rotate(1080deg) translate(-256px, -256px);transform: translate(256px, 256px) rotate(1080deg) translate(-256px, -256px);}#el_fbB0CYEZbJ_an_w9fF3PbGC{-webkit-animation-fill-mode: backwards;animation-fill-mode: backwards;-webkit-transform: translate(256px, 256px) rotate(0deg) translate(-256px, -256px);transform: translate(256px, 256px) rotate(0deg) translate(-256px, -256px);-webkit-animation-name: kf_el_fbB0CYEZbJ_an_w9fF3PbGC;animation-name: kf_el_fbB0CYEZbJ_an_w9fF3PbGC;-webkit-animation-timing-function: cubic-bezier(0, 0, 1, 1);animation-timing-function: cubic-bezier(0, 0, 1, 1);}#el_jQ9vRoBTiJ_an_2u_m8FGWf{-webkit-animation-fill-mode: backwards;animation-fill-mode: backwards;-webkit-transform: translate(294.5px, 256px) rotate(0deg) translate(-294.5px, -256px);transform: translate(294.5px, 256px) rotate(0deg) translate(-294.5px, -256px);-webkit-animation-name: kf_el_jQ9vRoBTiJ_an_2u_m8FGWf;animation-name: kf_el_jQ9vRoBTiJ_an_2u_m8FGWf;-webkit-animation-timing-function: cubic-bezier(0, 0, 1, 1);animation-timing-function: cubic-bezier(0, 0, 1, 1);}</style>
<path d="M257,0C116.302,0,0,114.3,0,255s116.302,257,257,257s255-116.3,255-257S397.698,0,257,0z" id="el_9lllqpXl0F"/>
<path d="M512,255c0,140.7-114.302,257-255,257V0C397.698,0,512,114.3,512,255z" id="el_0mkrdrtxKI"/>
<path d="M257,60C149.598,60,60,147.599,60,255s89.598,197,197,197s195-89.599,195-197S364.402,60,257,60z" id="el_Mbx0AJC81W"/>
<path d="M452,255c0,107.401-87.598,197-195,197V60C364.402,60,452,147.599,452,255z" id="el_hLt414_5WM"/>
<g id="el_fbB0CYEZbJ_an_w9fF3PbGC" data-animator-group="true" data-animator-type="1"><path d="M287,240h-15v-60h15c8.401,0,15,6.599,15,15c0,19.799,30,19.799,30,0c0-24.901-20.098-45-45-45h-15&#10;&#9;v-15c0-9.901-7.5-15-15-15s-15,5.099-15,15v15h-17c-24.902,0-45,20.099-45,45v30c0,24.901,20.098,45,45,45h17v62h-17&#10;&#9;c-8.401,0-15-6.599-15-15c0-19.799-30-19.799-30,0c0,24.901,20.098,45,45,45h17v15c0,9.901,7.5,15,15,15s15-5.099,15-15v-15h15&#10;&#9;c24.902,0,45-20.099,45-45v-32C332,260.099,311.902,240,287,240z M242,240h-17c-8.401,0-15-6.599-15-15v-30c0-8.401,6.599-15,15-15&#10;&#9;h17V240z M302,317c0,8.401-6.599,15-15,15h-15v-62h15c8.401,0,15,6.599,15,15V317z" id="el_fbB0CYEZbJ"/></g>
<g id="el_jQ9vRoBTiJ_an_2u_m8FGWf" data-animator-group="true" data-animator-type="1"><path d="M287,240h-15v-60h15c8.401,0,15,6.599,15,15c0,19.799,30,19.799,30,0c0-24.901-20.098-45-45-45h-15&#10;&#9;v-15c0-9.901-7.5-15-15-15v272c7.5,0,15-5.099,15-15v-15h15c24.902,0,45-20.099,45-45v-32C332,260.099,311.902,240,287,240z&#10;&#9; M302,317c0,8.401-6.599,15-15,15h-15v-62h15c8.401,0,15,6.599,15,15V317z" id="el_jQ9vRoBTiJ"/></g>
<g id="el_nEmhTt696a">
</g>
<g id="el_Bf5jvrmFdl">
</g>
<g id="el_RaknAzsb_c">
</g>
<g id="el_wqiJoNcrR3">
</g>
<g id="el_OCImz2gp1I">
</g>
<g id="el_M__U6-Z-Lf">
</g>
<g id="el_DZMKd_ejXc">
</g>
<g id="el_EGq2POHS9I">
</g>
<g id="el_8zkvXT3I7G">
</g>
<g id="el_CEIrVABgYMH">
</g>
<g id="el_HkiN24o1Z3f">
</g>
<g id="el_eQHdGpvIXGy">
</g>
<g id="el_rP5o0OrhSo9">
</g>
<g id="el_f-xiPEEX8o9">
</g>
<g id="el_94brw7YnMt5">
</g>
</svg>