<svg version="1.1" id="el_8wJMa7bm2" xmlns="http://www.w3.org/2000/svg" xmlns:xlink="http://www.w3.org/1999/xlink" x="0px" y="0px" viewBox="0 0 512 512" style="enable-background:new 0 0 512 512;" xml:space="preserve"><style>@-webkit-keyframes kf_el_N16smdp7hu_an_zIP9hIqaC{0%{-webkit-transform: translate(256.00048828125px, 174.54500770568848px) rotate(0deg) translate(-256.00048828125px, -174.54500770568848px);transform: translate(256.00048828125px, 174.54500770568848px) rotate(0deg) translate(-256.00048828125px, -174.54500770568848px);}27.78%{-webkit-transform: translate(256.00048828125px, 174.54500770568848px) rotate(45deg) translate(-256.00048828125px, -174.54500770568848px);transform: translate(256.00048828125px, 174.54500770568848px) rotate(45deg) translate(-256.00048828125px, -174.54500770568848px);}55.56%{-webkit-transform: translate(256.00048828125px, 174.54500770568848px) rotate(0deg) translate(-256.00048828125px, -174.54500770568848px);transform: translate(256.00048828125px, 174.54500770568848px) rotate(0deg) translate(-256.00048828125px, -174.54500770568848px);}77.78%{-webkit-transform: translate(256.00048828125px, 174.54500770568848px) rotate(-45deg) translate(-256.00048828125px, -174.54500770568848px);transform: translate(256.00048828125px, 174.54500770568848px) rotate(-45deg) translate(-256.00048828125px, -174.54500770568848px);}95.56%{-webkit-transform: translate(256.00048828125px, 174.54500770568848px) rotate(0deg) translate(-256.00048828125px, -174.54500770568848px);transform: translate(256.00048828125px, 174.54500770568848px) rotate(0deg) translate(-256.00048828125px, -174.54500770568848px);}100%{-webkit-transform: translate(256.00048828125px, 174.54500770568848px) rotate(0deg) translate(-256.00048828125px, -174.54500770568848px);transform: translate(256.00048828125px, 174.54500770568848px) rotate(0deg) translate(-256.00048828125px, -174.54500770568848px);}}@keyframes kf_el_N16smdp7hu_an_zIP9hIqaC{0%{-webkit-transform: translate(256.00048828125px, 174.54500770568848px) rotate(0deg) translate(-256.00048828125px, -174.54500770568848px);transform: translate(256.00048828125px, 174.54500770568848px) rotate(0deg) translate(-256.00048828125px, -174.54500770568848px);}27.78%{-webkit-transform: translate(256.00048828125px, 174.54500770568848px) rotate(45deg) translate(-256.00048828125px, -174.54500770568848px);transform: translate(256.00048828125px, 174.54500770568848px) rotate(45deg) translate(-256.00048828125px, -174.54500770568848px);}55.56%{-webkit-transform: translate(256.00048828125px, 174.54500770568848px) rotate(0deg) translate(-256.00048828125px, -174.54500770568848px);transform: translate(256.00048828125px, 174.54500770568848px) rotate(0deg) translate(-256.00048828125px, -174.54500770568848px);}77.78%{-webkit-transform: translate(256.00048828125px, 174.54500770568848px) rotate(-45deg) translate(-256.00048828125px, -174.54500770568848px);transform: translate(256.00048828125px, 174.54500770568848px) rotate(-45deg) translate(-256.00048828125px, -174.54500770568848px);}95.56%{-webkit-transform: translate(256.00048828125px, 174.54500770568848px) rotate(0deg) translate(-256.00048828125px, -174.54500770568848px);transform: translate(256.00048828125px, 174.54500770568848px) rotate(0deg) translate(-256.00048828125px, -174.54500770568848px);}100%{-webkit-transform: translate(256.00048828125px, 174.54500770568848px) rotate(0deg) translate(-256.00048828125px, -174.54500770568848px);transform: translate(256.00048828125px, 174.54500770568848px) rotate(0deg) translate(-256.00048828125px, -174.54500770568848px);}}@-webkit-keyframes kf_el_2AUqqZttA6_an_VN2NrQyuD{0%{-webkit-transform: translate(255.99999237060547px, 174.5455093383789px) rotate(0deg) translate(-255.99999237060547px, -174.5455093383789px);transform: translate(255.99999237060547px, 174.5455093383789px) rotate(0deg) translate(-255.99999237060547px, -174.5455093383789px);}27.78%{-webkit-transform: translate(255.99999237060547px, 174.5455093383789px) rotate(45deg) translate(-255.99999237060547px, -174.5455093383789px);transform: translate(255.99999237060547px, 174.5455093383789px) rotate(45deg) translate(-255.99999237060547px, -174.5455093383789px);}55.56%{-webkit-transform: translate(255.99999237060547px, 174.5455093383789px) rotate(0deg) translate(-255.99999237060547px, -174.5455093383789px);transform: translate(255.99999237060547px, 174.5455093383789px) rotate(0deg) translate(-255.99999237060547px, -174.5455093383789px);}77.78%{-webkit-transform: translate(255.99999237060547px, 174.5455093383789px) rotate(-45deg) translate(-255.99999237060547px, -174.5455093383789px);transform: translate(255.99999237060547px, 174.5455093383789px) rotate(-45deg) translate(-255.99999237060547px, -174.5455093383789px);}95.56%{-webkit-transform: translate(255.99999237060547px, 174.5455093383789px) rotate(0deg) translate(-255.99999237060547px, -174.5455093383789px);transform: translate(255.99999237060547px, 174.5455093383789px) rotate(0deg) translate(-255.99999237060547px, -174.5455093383789px);}100%{-webkit-transform: translate(255.99999237060547px, 174.5455093383789px) rotate(0deg) translate(-255.99999237060547px, -174.5455093383789px);transform: translate(255.99999237060547px, 174.5455093383789px) rotate(0deg) translate(-255.99999237060547px, -174.5455093383789px);}}@keyframes kf_el_2AUqqZttA6_an_VN2NrQyuD{0%{-webkit-transform: translate(255.99999237060547px, 174.5455093383789px) rotate(0deg) translate(-255.99999237060547px, -174.5455093383789px);transform: translate(255.99999237060547px, 174.5455093383789px) rotate(0deg) translate(-255.99999237060547px, -174.5455093383789px);}27.78%{-webkit-transform: translate(255.99999237060547px, 174.5455093383789px) rotate(45deg) translate(-255.99999237060547px, -174.5455093383789px);transform: translate(255.99999237060547px, 174.5455093383789px) rotate(45deg) translate(-255.99999237060547px, -174.5455093383789px);}55.56%{-webkit-transform: translate(255.99999237060547px, 174.5455093383789px) rotate(0deg) translate(-255.99999237060547px, -174.5455093383789px);transform: translate(255.99999237060547px, 174.5455093383789px) rotate(0deg) translate(-255.99999237060547px, -174.5455093383789px);}77.78%{-webkit-transform: translate(255.99999237060547px, 174.5455093383789px) rotate(-45deg) translate(-255.99999237060547px, -174.5455093383789px);transform: translate(255.99999237060547px, 174.5455093383789px) rotate(-45deg) translate(-255.99999237060547px, -174.5455093383789px);}95.56%{-webkit-transform: translate(255.99999237060547px, 174.5455093383789px) rotate(0deg) translate(-255.99999237060547px, -174.5455093383789px);transform: translate(255.99999237060547px, 174.5455093383789px) rotate(0deg) translate(-255.99999237060547px, -174.5455093383789px);}100%{-webkit-transform: translate(255.99999237060547px, 174.5455093383789px) rotate(0deg) translate(-255.99999237060547px, -174.5455093383789px);transform: translate(255.99999237060547px, 174.5455093383789px) rotate(0deg) translate(-255.99999237060547px, -174.5455093383789px);}}@-webkit-keyframes kf_el_JSNhPgGnWo_an_Ao74qq13g{0%{-webkit-transform: translate(395.63597679138184px, 174.5450038909912px) rotate(0deg) translate(-395.63597679138184px, -174.5450038909912px);transform: translate(395.63597679138184px, 174.5450038909912px) rotate(0deg) translate(-395.63597679138184px, -174.5450038909912px);}27.78%{-webkit-transform: translate(395.63597679138184px, 174.5450038909912px) rotate(45deg) translate(-395.63597679138184px, -174.5450038909912px);transform: translate(395.63597679138184px, 174.5450038909912px) rotate(45deg) translate(-395.63597679138184px, -174.5450038909912px);}55.56%{-webkit-transform: translate(395.63597679138184px, 174.5450038909912px) rotate(0deg) translate(-395.63597679138184px, -174.5450038909912px);transform: translate(395.63597679138184px, 174.5450038909912px) rotate(0deg) translate(-395.63597679138184px, -174.5450038909912px);}77.78%{-webkit-transform: translate(395.63597679138184px, 174.5450038909912px) rotate(-45deg) translate(-395.63597679138184px, -174.5450038909912px);transform: translate(395.63597679138184px, 174.5450038909912px) rotate(-45deg) translate(-395.63597679138184px, -174.5450038909912px);}95.56%{-webkit-transform: translate(395.63597679138184px, 174.5450038909912px) rotate(0deg) translate(-395.63597679138184px, -174.5450038909912px);transform: translate(395.63597679138184px, 174.5450038909912px) rotate(0deg) translate(-395.63597679138184px, -174.5450038909912px);}100%{-webkit-transform: translate(395.63597679138184px, 174.5450038909912px) rotate(0deg) translate(-395.63597679138184px, -174.5450038909912px);transform: translate(395.63597679138184px, 174.5450038909912px) rotate(0deg) translate(-395.63597679138184px, -174.5450038909912px);}}@keyframes kf_el_JSNhPgGnWo_an_Ao74qq13g{0%{-webkit-transform: translate(395.63597679138184px, 174.5450038909912px) rotate(0deg) translate(-395.63597679138184px, -174.5450038909912px);transform: translate(395.63597679138184px, 174.5450038909912px) rotate(0deg) translate(-395.63597679138184px, -174.5450038909912px);}27.78%{-webkit-transform: translate(395.63597679138184px, 174.5450038909912px) rotate(45deg) translate(-395.63597679138184px, -174.5450038909912px);transform: translate(395.63597679138184px, 174.5450038909912px) rotate(45deg) translate(-395.63597679138184px, -174.5450038909912px);}55.56%{-webkit-transform: translate(395.63597679138184px, 174.5450038909912px) rotate(0deg) translate(-395.63597679138184px, -174.5450038909912px);transform: translate(395.63597679138184px, 174.5450038909912px) rotate(0deg) translate(-395.63597679138184px, -174.5450038909912px);}77.78%{-webkit-transform: translate(395.63597679138184px, 174.5450038909912px) rotate(-45deg) translate(-395.63597679138184px, -174.5450038909912px);transform: translate(395.63597679138184px, 174.5450038909912px) rotate(-45deg) translate(-395.63597679138184px, -174.5450038909912px);}95.56%{-webkit-transform: translate(395.63597679138184px, 174.5450038909912px) rotate(0deg) translate(-395.63597679138184px, -174.5450038909912px);transform: translate(395.63597679138184px, 174.5450038909912px) rotate(0deg) translate(-395.63597679138184px, -174.5450038909912px);}100%{-webkit-transform: translate(395.63597679138184px, 174.5450038909912px) rotate(0deg) translate(-395.63597679138184px, -174.5450038909912px);transform: translate(395.63597679138184px, 174.5450038909912px) rotate(0deg) translate(-395.63597679138184px, -174.5450038909912px);}}@-webkit-keyframes kf_el_E9SFer9Dfs_an_TbW15-rkG{0%{-webkit-transform: translate(116.3639965057373px, 174.5450038909912px) rotate(0deg) translate(-116.3639965057373px, -174.5450038909912px);transform: translate(116.3639965057373px, 174.5450038909912px) rotate(0deg) translate(-116.3639965057373px, -174.5450038909912px);}27.78%{-webkit-transform: translate(116.3639965057373px, 174.5450038909912px) rotate(45deg) translate(-116.3639965057373px, -174.5450038909912px);transform: translate(116.3639965057373px, 174.5450038909912px) rotate(45deg) translate(-116.3639965057373px, -174.5450038909912px);}55.56%{-webkit-transform: translate(116.3639965057373px, 174.5450038909912px) rotate(0deg) translate(-116.3639965057373px, -174.5450038909912px);transform: translate(116.3639965057373px, 174.5450038909912px) rotate(0deg) translate(-116.3639965057373px, -174.5450038909912px);}77.78%{-webkit-transform: translate(116.3639965057373px, 174.5450038909912px) rotate(-45deg) translate(-116.3639965057373px, -174.5450038909912px);transform: translate(116.3639965057373px, 174.5450038909912px) rotate(-45deg) translate(-116.3639965057373px, -174.5450038909912px);}95.56%{-webkit-transform: translate(116.3639965057373px, 174.5450038909912px) rotate(0deg) translate(-116.3639965057373px, -174.5450038909912px);transform: translate(116.3639965057373px, 174.5450038909912px) rotate(0deg) translate(-116.3639965057373px, -174.5450038909912px);}100%{-webkit-transform: translate(116.3639965057373px, 174.5450038909912px) rotate(0deg) translate(-116.3639965057373px, -174.5450038909912px);transform: translate(116.3639965057373px, 174.5450038909912px) rotate(0deg) translate(-116.3639965057373px, -174.5450038909912px);}}@keyframes kf_el_E9SFer9Dfs_an_TbW15-rkG{0%{-webkit-transform: translate(116.3639965057373px, 174.5450038909912px) rotate(0deg) translate(-116.3639965057373px, -174.5450038909912px);transform: translate(116.3639965057373px, 174.5450038909912px) rotate(0deg) translate(-116.3639965057373px, -174.5450038909912px);}27.78%{-webkit-transform: translate(116.3639965057373px, 174.5450038909912px) rotate(45deg) translate(-116.3639965057373px, -174.5450038909912px);transform: translate(116.3639965057373px, 174.5450038909912px) rotate(45deg) translate(-116.3639965057373px, -174.5450038909912px);}55.56%{-webkit-transform: translate(116.3639965057373px, 174.5450038909912px) rotate(0deg) translate(-116.3639965057373px, -174.5450038909912px);transform: translate(116.3639965057373px, 174.5450038909912px) rotate(0deg) translate(-116.3639965057373px, -174.5450038909912px);}77.78%{-webkit-transform: translate(116.3639965057373px, 174.5450038909912px) rotate(-45deg) translate(-116.3639965057373px, -174.5450038909912px);transform: translate(116.3639965057373px, 174.5450038909912px) rotate(-45deg) translate(-116.3639965057373px, -174.5450038909912px);}95.56%{-webkit-transform: translate(116.3639965057373px, 174.5450038909912px) rotate(0deg) translate(-116.3639965057373px, -174.5450038909912px);transform: translate(116.3639965057373px, 174.5450038909912px) rotate(0deg) translate(-116.3639965057373px, -174.5450038909912px);}100%{-webkit-transform: translate(116.3639965057373px, 174.5450038909912px) rotate(0deg) translate(-116.3639965057373px, -174.5450038909912px);transform: translate(116.3639965057373px, 174.5450038909912px) rotate(0deg) translate(-116.3639965057373px, -174.5450038909912px);}}@-webkit-keyframes kf_el_WMD9OxxtwJ_an__3aEgzUlB{0%{-webkit-transform: translate(256px, 174.5449981689453px) rotate(0deg) translate(-256px, -174.5449981689453px);transform: translate(256px, 174.5449981689453px) rotate(0deg) translate(-256px, -174.5449981689453px);}27.78%{-webkit-transform: translate(256px, 174.5449981689453px) rotate(45deg) translate(-256px, -174.5449981689453px);transform: translate(256px, 174.5449981689453px) rotate(45deg) translate(-256px, -174.5449981689453px);}55.56%{-webkit-transform: translate(256px, 174.5449981689453px) rotate(0deg) translate(-256px, -174.5449981689453px);transform: translate(256px, 174.5449981689453px) rotate(0deg) translate(-256px, -174.5449981689453px);}77.78%{-webkit-transform: translate(256px, 174.5449981689453px) rotate(-45deg) translate(-256px, -174.5449981689453px);transform: translate(256px, 174.5449981689453px) rotate(-45deg) translate(-256px, -174.5449981689453px);}95.56%{-webkit-transform: translate(256px, 174.5449981689453px) rotate(0deg) translate(-256px, -174.5449981689453px);transform: translate(256px, 174.5449981689453px) rotate(0deg) translate(-256px, -174.5449981689453px);}100%{-webkit-transform: translate(256px, 174.5449981689453px) rotate(0deg) translate(-256px, -174.5449981689453px);transform: translate(256px, 174.5449981689453px) rotate(0deg) translate(-256px, -174.5449981689453px);}}@keyframes kf_el_WMD9OxxtwJ_an__3aEgzUlB{0%{-webkit-transform: translate(256px, 174.5449981689453px) rotate(0deg) translate(-256px, -174.5449981689453px);transform: translate(256px, 174.5449981689453px) rotate(0deg) translate(-256px, -174.5449981689453px);}27.78%{-webkit-transform: translate(256px, 174.5449981689453px) rotate(45deg) translate(-256px, -174.5449981689453px);transform: translate(256px, 174.5449981689453px) rotate(45deg) translate(-256px, -174.5449981689453px);}55.56%{-webkit-transform: translate(256px, 174.5449981689453px) rotate(0deg) translate(-256px, -174.5449981689453px);transform: translate(256px, 174.5449981689453px) rotate(0deg) translate(-256px, -174.5449981689453px);}77.78%{-webkit-transform: translate(256px, 174.5449981689453px) rotate(-45deg) translate(-256px, -174.5449981689453px);transform: translate(256px, 174.5449981689453px) rotate(-45deg) translate(-256px, -174.5449981689453px);}95.56%{-webkit-transform: translate(256px, 174.5449981689453px) rotate(0deg) translate(-256px, -174.5449981689453px);transform: translate(256px, 174.5449981689453px) rotate(0deg) translate(-256px, -174.5449981689453px);}100%{-webkit-transform: translate(256px, 174.5449981689453px) rotate(0deg) translate(-256px, -174.5449981689453px);transform: translate(256px, 174.5449981689453px) rotate(0deg) translate(-256px, -174.5449981689453px);}}@-webkit-keyframes kf_el_8q-OZewEO3_an_wGoqFyzum{0%{-webkit-transform: translate(256.0000228881836px, 174.54598999023438px) rotate(0deg) translate(-256.0000228881836px, -174.54598999023438px);transform: translate(256.0000228881836px, 174.54598999023438px) rotate(0deg) translate(-256.0000228881836px, -174.54598999023438px);}27.78%{-webkit-transform: translate(256.0000228881836px, 174.54598999023438px) rotate(45deg) translate(-256.0000228881836px, -174.54598999023438px);transform: translate(256.0000228881836px, 174.54598999023438px) rotate(45deg) translate(-256.0000228881836px, -174.54598999023438px);}55.56%{-webkit-transform: translate(256.0000228881836px, 174.54598999023438px) rotate(0deg) translate(-256.0000228881836px, -174.54598999023438px);transform: translate(256.0000228881836px, 174.54598999023438px) rotate(0deg) translate(-256.0000228881836px, -174.54598999023438px);}77.78%{-webkit-transform: translate(256.0000228881836px, 174.54598999023438px) rotate(-45deg) translate(-256.0000228881836px, -174.54598999023438px);transform: translate(256.0000228881836px, 174.54598999023438px) rotate(-45deg) translate(-256.0000228881836px, -174.54598999023438px);}95.56%{-webkit-transform: translate(256.0000228881836px, 174.54598999023438px) rotate(0deg) translate(-256.0000228881836px, -174.54598999023438px);transform: translate(256.0000228881836px, 174.54598999023438px) rotate(0deg) translate(-256.0000228881836px, -174.54598999023438px);}100%{-webkit-transform: translate(256.0000228881836px, 174.54598999023438px) rotate(0deg) translate(-256.0000228881836px, -174.54598999023438px);transform: translate(256.0000228881836px, 174.54598999023438px) rotate(0deg) translate(-256.0000228881836px, -174.54598999023438px);}}@keyframes kf_el_8q-OZewEO3_an_wGoqFyzum{0%{-webkit-transform: translate(256.0000228881836px, 174.54598999023438px) rotate(0deg) translate(-256.0000228881836px, -174.54598999023438px);transform: translate(256.0000228881836px, 174.54598999023438px) rotate(0deg) translate(-256.0000228881836px, -174.54598999023438px);}27.78%{-webkit-transform: translate(256.0000228881836px, 174.54598999023438px) rotate(45deg) translate(-256.0000228881836px, -174.54598999023438px);transform: translate(256.0000228881836px, 174.54598999023438px) rotate(45deg) translate(-256.0000228881836px, -174.54598999023438px);}55.56%{-webkit-transform: translate(256.0000228881836px, 174.54598999023438px) rotate(0deg) translate(-256.0000228881836px, -174.54598999023438px);transform: translate(256.0000228881836px, 174.54598999023438px) rotate(0deg) translate(-256.0000228881836px, -174.54598999023438px);}77.78%{-webkit-transform: translate(256.0000228881836px, 174.54598999023438px) rotate(-45deg) translate(-256.0000228881836px, -174.54598999023438px);transform: translate(256.0000228881836px, 174.54598999023438px) rotate(-45deg) translate(-256.0000228881836px, -174.54598999023438px);}95.56%{-webkit-transform: translate(256.0000228881836px, 174.54598999023438px) rotate(0deg) translate(-256.0000228881836px, -174.54598999023438px);transform: translate(256.0000228881836px, 174.54598999023438px) rotate(0deg) translate(-256.0000228881836px, -174.54598999023438px);}100%{-webkit-transform: translate(256.0000228881836px, 174.54598999023438px) rotate(0deg) translate(-256.0000228881836px, -174.54598999023438px);transform: translate(256.0000228881836px, 174.54598999023438px) rotate(0deg) translate(-256.0000228881836px, -174.54598999023438px);}}#el_8wJMa7bm2 *{-webkit-animation-duration: 3s;animation-duration: 3s;-webkit-animation-iteration-count: infinite;animation-iteration-count: infinite;-webkit-animation-timing-function: cubic-bezier(0, 0, 1, 1);animation-timing-function: cubic-bezier(0, 0, 1, 1);}#el_N16smdp7hu{fill: #0E9347;}#el_H3EDU4lDc8{fill: #0D8944;}#el_2AUqqZttA6{fill: #3BB54A;}#el_OkEtyN6Bx5{fill: #0E9347;}#el_WMD9OxxtwJ{fill: #0E9347;}#el_E9SFer9Dfs{fill: #0E9347;}#el_JSNhPgGnWo{fill: #0E9347;}#el_8q-OZewEO3{fill: #89C763;}#el_NbGYicNmB_{fill: #FFCA5D;}#el_V3NHEieNGD{fill: #F6B545;}#el_IyUldKmc_G{fill: #FFCB5B;}#el_LQkbC72Acu{fill: #F6B545;}#el_6xhvxkbhVY{fill: #FFE27A;}#el_VP4w1L0yFN{fill: #F19920;}#el_DEs8Ix0QW30{fill: #FFCB5B;}#el_2OAJ_HQBkHD{fill: #F19920;}#el_0h3sGxG-ln2{fill: #F19920;}#el_fhg8vLDYIZc{fill: #E78825;}#el_4m1UB8nOzqv{fill: #E78825;}#el_jK7MDenG-cl{fill: #F6B545;}#el_V2E4SwZenxd{fill: #F19920;}#el_Na0IeZtaSjZ{fill: #FFCB5B;}#el_1subMxkkeKG{fill: #F6B545;}#el_Op6MS3mfJL1{fill: #F19920;}#el_bSs811ApBGv{fill: #FFCB5B;}#el_1UJYF92bZoW{fill: #F6B545;}#el_YPZQKwsy33Z{fill: #FFE27A;}#el_ceRkmJvwSTp{fill: #F19920;}#el_8vCil-Jv9yQ{fill: #FFCB5B;}#el_nefgA9-KqGK{fill: #F19920;}#el_47Z54VN6kYy{fill: #F6B545;}#el_qHXzLU8K7uM{fill: #F6B545;}#el_6U_an-Q7N6k{fill: #FFCB5B;}#el_HuZ0k1OuXcI{fill: #F6B545;}#el_pYOpcf1CHtC{fill: #FFE27A;}#el_CNutAxkvNiA{fill: #F19920;}#el_bAQWJt2Z1kR{fill: #FFCB5B;}#el_rnBABbWtIfZ{fill: #F19920;}#el_8q-OZewEO3_an_wGoqFyzum{-webkit-animation-fill-mode: backwards;animation-fill-mode: backwards;-webkit-transform: translate(256.0000228881836px, 174.54598999023438px) rotate(0deg) translate(-256.0000228881836px, -174.54598999023438px);transform: translate(256.0000228881836px, 174.54598999023438px) rotate(0deg) translate(-256.0000228881836px, -174.54598999023438px);-webkit-animation-name: kf_el_8q-OZewEO3_an_wGoqFyzum;animation-name: kf_el_8q-OZewEO3_an_wGoqFyzum;-webkit-animation-timing-function: cubic-bezier(0, 0, 1, 1);animation-timing-function: cubic-bezier(0, 0, 1, 1);}#el_WMD9OxxtwJ_an__3aEgzUlB{-webkit-animation-fill-mode: backwards;animation-fill-mode: backwards;-webkit-transform: translate(256px, 174.5449981689453px) rotate(0deg) translate(-256px, -174.5449981689453px);transform: translate(256px, 174.5449981689453px) rotate(0deg) translate(-256px, -174.5449981689453px);-webkit-animation-name: kf_el_WMD9OxxtwJ_an__3aEgzUlB;animation-name: kf_el_WMD9OxxtwJ_an__3aEgzUlB;-webkit-animation-timing-function: cubic-bezier(0, 0, 1, 1);animation-timing-function: cubic-bezier(0, 0, 1, 1);}#el_E9SFer9Dfs_an_TbW15-rkG{-webkit-animation-fill-mode: backwards;animation-fill-mode: backwards;-webkit-transform: translate(116.3639965057373px, 174.5450038909912px) rotate(0deg) translate(-116.3639965057373px, -174.5450038909912px);transform: translate(116.3639965057373px, 174.5450038909912px) rotate(0deg) translate(-116.3639965057373px, -174.5450038909912px);-webkit-animation-name: kf_el_E9SFer9Dfs_an_TbW15-rkG;animation-name: kf_el_E9SFer9Dfs_an_TbW15-rkG;-webkit-animation-timing-function: cubic-bezier(0, 0, 1, 1);animation-timing-function: cubic-bezier(0, 0, 1, 1);}#el_JSNhPgGnWo_an_Ao74qq13g{-webkit-animation-fill-mode: backwards;animation-fill-mode: backwards;-webkit-transform: translate(395.63597679138184px, 174.5450038909912px) rotate(0deg) translate(-395.63597679138184px, -174.5450038909912px);transform: translate(395.63597679138184px, 174.5450038909912px) rotate(0deg) translate(-395.63597679138184px, -174.5450038909912px);-webkit-animation-name: kf_el_JSNhPgGnWo_an_Ao74qq13g;animation-name: kf_el_JSNhPgGnWo_an_Ao74qq13g;-webkit-animation-timing-function: cubic-bezier(0, 0, 1, 1);animation-timing-function: cubic-bezier(0, 0, 1, 1);}#el_2AUqqZttA6_an_VN2NrQyuD{-webkit-animation-fill-mode: backwards;animation-fill-mode: backwards;-webkit-transform: translate(255.99999237060547px, 174.5455093383789px) rotate(0deg) translate(-255.99999237060547px, -174.5455093383789px);transform: translate(255.99999237060547px, 174.5455093383789px) rotate(0deg) translate(-255.99999237060547px, -174.5455093383789px);-webkit-animation-name: kf_el_2AUqqZttA6_an_VN2NrQyuD;animation-name: kf_el_2AUqqZttA6_an_VN2NrQyuD;-webkit-animation-timing-function: cubic-bezier(0, 0, 1, 1);animation-timing-function: cubic-bezier(0, 0, 1, 1);}#el_N16smdp7hu_an_zIP9hIqaC{-webkit-animation-fill-mode: backwards;animation-fill-mode: backwards;-webkit-transform: translate(256.00048828125px, 174.54500770568848px) rotate(0deg) translate(-256.00048828125px, -174.54500770568848px);transform: translate(256.00048828125px, 174.54500770568848px) rotate(0deg) translate(-256.00048828125px, -174.54500770568848px);-webkit-animation-name: kf_el_N16smdp7hu_an_zIP9hIqaC;animation-name: kf_el_N16smdp7hu_an_zIP9hIqaC;-webkit-animation-timing-function: cubic-bezier(0, 0, 1, 1);animation-timing-function: cubic-bezier(0, 0, 1, 1);}#el_6xhvxkbhVY_an_7xpgnnuO8{-webkit-transform: translate(366.5455017089844px, 274.0232238769531px) rotate(0deg) translate(-366.5455017089844px, -274.0232238769531px);transform: translate(366.5455017089844px, 274.0232238769531px) rotate(0deg) translate(-366.5455017089844px, -274.0232238769531px);}</style>
<g id="el_N16smdp7hu_an_zIP9hIqaC" data-animator-group="true" data-animator-type="1"><path d="M488.727,325.818H23.273C10.473,325.818,0,315.345,0,302.545v-256&#10;&#9;c0-12.8,10.473-23.273,23.273-23.273h465.455c12.8,0,23.273,10.473,23.273,23.273v256C512,315.345,501.527,325.818,488.727,325.818z&#10;&#9;" id="el_N16smdp7hu"/></g>
<path d="M430.545,232.727c-26.764,0-51.2,12.8-65.164,33.745C353.745,260.655,340.945,256,325.818,256&#10;&#9;c-40.727,0-74.473,30.255-80.291,69.818h243.2c11.636,0,20.945-8.145,23.273-19.782&#10;&#9;C507.345,265.309,472.436,232.727,430.545,232.727z" id="el_H3EDU4lDc8"/>
<g id="el_2AUqqZttA6_an_VN2NrQyuD" data-animator-group="true" data-animator-type="1"><path d="M442.182,302.545H69.818c0-25.6-20.945-46.545-46.545-46.545V93.091&#10;&#9;c25.6,0,46.545-20.945,46.545-46.545h372.364c0,25.6,20.945,46.545,46.545,46.545V256C463.127,256,442.182,276.945,442.182,302.545z&#10;&#9;" id="el_2AUqqZttA6"/></g>
<g id="el_MDja4t9g2Q">
	<path d="M430.545,232.727c-26.764,0-51.2,12.8-65.164,33.745C353.745,260.655,340.945,256,325.818,256&#10;&#9;&#9;c-32.582,0-60.509,18.618-73.309,46.545h189.673c0-25.6,19.782-45.382,45.382-46.545&#10;&#9;&#9;C472.436,242.036,452.655,232.727,430.545,232.727z" id="el_OkEtyN6Bx5"/>
	<g id="el_WMD9OxxtwJ_an__3aEgzUlB" data-animator-group="true" data-animator-type="1"><ellipse cx="256" cy="174.545" rx="93.091" ry="104.727" id="el_WMD9OxxtwJ"/></g>
	<g id="el_E9SFer9Dfs_an_TbW15-rkG" data-animator-group="true" data-animator-type="1"><circle cx="116.364" cy="174.545" r="23.273" id="el_E9SFer9Dfs"/></g>
	<g id="el_JSNhPgGnWo_an_Ao74qq13g" data-animator-group="true" data-animator-type="1"><circle cx="395.636" cy="174.545" r="23.273" id="el_JSNhPgGnWo"/></g>
</g>
<g id="el_8q-OZewEO3_an_wGoqFyzum" data-animator-group="true" data-animator-type="1"><path d="M267.636,162.909h-23.273c-6.982,0-11.636-4.655-11.636-11.636c0-6.982,4.655-11.636,11.636-11.636&#10;&#9;h34.909c6.982,0,11.636-4.655,11.636-11.636c0-6.982-4.655-11.636-11.636-11.636h-11.636c0-6.982-4.655-11.636-11.636-11.636&#10;&#9;c-6.982,0-11.636,4.655-11.636,11.636c-19.782,0-34.909,15.127-34.909,34.909s15.127,34.909,34.909,34.909h23.273&#10;&#9;c6.982,0,11.636,4.655,11.636,11.636c0,6.982-4.655,11.636-11.636,11.636h-34.909c-6.982,0-11.636,4.655-11.636,11.636&#10;&#9;c0,6.982,4.655,11.636,11.636,11.636h11.636c0,6.982,4.655,11.636,11.636,11.636c6.982,0,11.636-4.655,11.636-11.636&#10;&#9;c19.782,0,34.909-15.127,34.909-34.909S287.418,162.909,267.636,162.909z" id="el_8q-OZewEO3"/></g>
<circle cx="302.545" cy="337.455" r="81.455" id="el_NbGYicNmB_"/>
<circle cx="407.273" cy="314.182" r="81.455" id="el_V3NHEieNGD"/>
<path d="M407.273,232.727c-45.382,0-81.455,36.073-81.455,81.455s36.073,81.455,81.455,81.455&#10;&#9;s81.455-36.073,81.455-81.455S452.655,232.727,407.273,232.727z M407.273,372.364c-32.582,0-58.182-25.6-58.182-58.182&#10;&#9;S374.691,256,407.273,256s58.182,25.6,58.182,58.182S439.855,372.364,407.273,372.364z" id="el_IyUldKmc_G"/>
<path d="M407.273,394.473L407.273,394.473c45.382,1.164,81.455-36.073,81.455-80.291h-1.164&#10;&#9;c-5.818,0-10.473,4.655-11.636,10.473c-2.327,16.291-10.473,31.418-22.109,41.891c-9.309,9.309-22.109,15.127-36.073,17.454&#10;&#9;C411.927,384,407.273,388.655,407.273,394.473z" id="el_LQkbC72Acu"/>
<path d="M407.273,233.891L407.273,233.891c-45.382-1.164-81.455,36.073-81.455,80.291h1.164&#10;&#9;c5.818,0,10.473-4.655,11.636-10.473c2.327-16.291,10.473-31.418,22.109-41.891c9.309-9.309,22.109-15.127,36.073-17.455&#10;&#9;C402.618,244.364,407.273,239.709,407.273,233.891z" id="el_6xhvxkbhVY"/>
<path d="M357.236,322.327c0-32.582,25.6-58.182,58.182-58.182c13.964,0,26.764,4.655,37.236,13.964&#10;&#9;C441.018,264.145,425.891,256,407.273,256c-32.582,0-58.182,25.6-58.182,58.182c0,18.618,8.145,33.745,20.945,44.218&#10;&#9;C361.891,349.091,357.236,336.291,357.236,322.327z" id="el_VP4w1L0yFN"/>
<path d="M442.182,350.255c-1.164,0-2.327,0-3.491-1.164c-2.327-2.327-2.327-5.818,0-8.145&#10;&#9;c6.982-6.982,10.473-17.455,10.473-26.764c0-3.491,2.327-5.818,5.818-5.818c3.491,0,5.818,2.327,5.818,5.818&#10;&#9;c0,12.8-4.655,25.6-12.8,34.909C445.673,350.255,443.345,350.255,442.182,350.255z" id="el_DEs8Ix0QW30"/>
<g id="el_WFlTH2aRLU2">
	<path d="M407.273,349.091c-6.982,0-11.636-4.655-11.636-11.636v-46.545c0-6.982,4.655-11.636,11.636-11.636&#10;&#9;&#9;s11.636,4.655,11.636,11.636v46.545C418.909,344.436,414.255,349.091,407.273,349.091z" id="el_2OAJ_HQBkHD"/>
	<path d="M450.327,382.836c-8.145-29.091-29.091-52.364-55.855-62.836c-4.655-26.764-22.109-50.036-44.218-64&#10;&#9;&#9;c-13.964,15.127-23.273,34.909-23.273,57.018c0,45.382,36.073,81.455,81.455,81.455&#10;&#9;&#9;C423.564,395.636,437.527,390.982,450.327,382.836z" id="el_0h3sGxG-ln2"/>
</g>
<g id="el_nQkArkiVNgB">
	<path d="M370.036,358.4c-8.145-10.473-13.964-23.273-13.964-37.236c0-16.291,6.982-31.418,18.618-41.891&#10;&#9;&#9;c-2.327-3.491-4.655-5.818-6.982-8.145c-11.636,10.473-18.618,25.6-18.618,43.055C349.091,332.8,357.236,347.927,370.036,358.4z" id="el_fhg8vLDYIZc"/>
	<path d="M395.636,321.164v16.291c0,6.982,4.655,11.636,11.636,11.636s11.636-4.655,11.636-11.636v-2.327&#10;&#9;&#9;C411.927,329.309,403.782,324.655,395.636,321.164z" id="el_4m1UB8nOzqv"/>
</g>
<path d="M450.327,382.836c-2.327-8.145-4.655-15.127-9.309-22.109c-9.309,6.982-20.945,11.636-33.745,11.636&#10;&#9;c-32.582,0-58.182-25.6-58.182-58.182c0-17.455,6.982-32.582,18.618-43.055c-5.818-5.818-11.636-10.473-18.618-13.964&#10;&#9;c-13.964,15.127-23.273,34.909-23.273,57.018c0,45.382,36.073,81.455,81.455,81.455&#10;&#9;C423.564,395.636,437.527,390.982,450.327,382.836z" id="el_jK7MDenG-cl"/>
<path d="M446.836,372.364c-8.145,5.818-18.618,9.309-29.091,11.636c-5.818,1.164-10.473,5.818-10.473,11.636&#10;&#9;l0,0c16.291,0,30.255-4.655,43.055-12.8C449.164,379.345,448,375.855,446.836,372.364z" id="el_V2E4SwZenxd"/>
<path d="M349.091,257.164c-13.964,15.127-23.273,34.909-23.273,57.018h1.164&#10;&#9;c5.818,0,10.473-4.655,11.636-10.473c2.327-16.291,10.473-30.255,20.945-40.727C356.073,261.818,352.582,259.491,349.091,257.164z" id="el_Na0IeZtaSjZ"/>
<circle cx="302.545" cy="337.455" r="81.455" id="el_1subMxkkeKG"/>
<path d="M290.909,395.636c0,8.145,1.164,15.127,3.491,23.273c2.327,0,5.818,0,8.145,0&#10;&#9;c45.382,0,81.455-36.073,81.455-81.455c0-8.145-1.164-15.127-3.491-23.273c-2.327,0-5.818,0-8.145,0&#10;&#9;C326.982,314.182,290.909,350.255,290.909,395.636z" id="el_Op6MS3mfJL1"/>
<path d="M302.545,256c-45.382,0-81.455,36.073-81.455,81.455s36.073,81.455,81.455,81.455&#10;&#9;S384,382.836,384,337.455S347.927,256,302.545,256z M302.545,395.636c-32.582,0-58.182-25.6-58.182-58.182&#10;&#9;s25.6-58.182,58.182-58.182s58.182,25.6,58.182,58.182S335.127,395.636,302.545,395.636z" id="el_bSs811ApBGv"/>
<path d="M302.545,417.745L302.545,417.745C347.927,418.909,384,381.673,384,337.455h-1.164&#10;&#9;c-5.818,0-10.473,4.655-11.636,10.473c-2.327,16.291-10.473,31.418-22.109,41.891c-9.309,9.309-22.109,15.127-36.073,17.455&#10;&#9;C307.2,407.273,302.545,411.927,302.545,417.745z" id="el_1UJYF92bZoW"/>
<path d="M302.545,257.164L302.545,257.164c-45.382-1.164-81.455,36.073-81.455,80.291h1.164&#10;&#9;c5.818,0,10.473-4.655,11.636-10.473c2.327-16.291,10.473-31.418,22.109-41.891c9.309-9.309,22.109-15.127,36.073-17.455&#10;&#9;C297.891,267.636,302.545,262.982,302.545,257.164z" id="el_YPZQKwsy33Z"/>
<path d="M252.509,345.6c0-32.582,25.6-58.182,58.182-58.182c13.964,0,26.764,4.655,37.236,13.964&#10;&#9;c-11.636-13.964-26.764-22.109-45.382-22.109c-32.582,0-58.182,25.6-58.182,58.182c0,18.618,8.145,33.745,20.945,44.218&#10;&#9;C257.164,372.364,252.509,359.564,252.509,345.6z" id="el_ceRkmJvwSTp"/>
<path d="M337.455,373.527c-1.164,0-2.327,0-3.491-1.164c-2.327-2.327-2.327-5.818,0-8.145&#10;&#9;c6.982-6.982,10.473-17.455,10.473-26.764c0-3.491,2.327-5.818,5.818-5.818c3.491,0,5.818,2.327,5.818,5.818&#10;&#9;c0,12.8-4.655,25.6-12.8,34.909C340.945,373.527,338.618,373.527,337.455,373.527z" id="el_8vCil-Jv9yQ"/>
<path d="M302.545,372.364c-6.982,0-11.636-4.655-11.636-11.636v-46.545c0-6.982,4.655-11.636,11.636-11.636&#10;&#9;c6.982,0,11.636,4.655,11.636,11.636v46.545C314.182,367.709,309.527,372.364,302.545,372.364z" id="el_nefgA9-KqGK"/>
<g id="el_xn4PZepLPYT">
	<path d="M356.073,315.345c2.327,6.982,4.655,13.964,4.655,22.109c0,32.582-25.6,58.182-58.182,58.182&#10;&#9;&#9;c-3.491,0-8.145,0-11.636-1.164v1.164c0,8.145,1.164,15.127,3.491,23.273c2.327,0,5.818,0,8.145,0&#10;&#9;&#9;c45.382,0,81.455-36.073,81.455-81.455c0-8.145-1.164-15.127-3.491-23.273c-2.327,0-5.818,0-8.145,0&#10;&#9;&#9;C366.545,314.182,361.891,314.182,356.073,315.345z" id="el_47Z54VN6kYy"/>
	<circle cx="360.727" cy="407.273" r="81.455" id="el_qHXzLU8K7uM"/>
</g>
<path d="M360.727,325.818c-45.382,0-81.455,36.073-81.455,81.455s36.073,81.455,81.455,81.455&#10;&#9;s81.455-36.073,81.455-81.455S406.109,325.818,360.727,325.818z M360.727,465.455c-32.582,0-58.182-25.6-58.182-58.182&#10;&#9;s25.6-58.182,58.182-58.182s58.182,25.6,58.182,58.182S393.309,465.455,360.727,465.455z" id="el_6U_an-Q7N6k"/>
<path d="M360.727,487.564L360.727,487.564c45.382,1.164,81.455-36.073,81.455-80.291h-1.164&#10;&#9;c-5.818,0-10.473,4.655-11.636,10.473c-2.327,16.291-10.473,31.418-22.109,41.891c-9.309,9.309-22.109,15.127-36.073,17.455&#10;&#9;C365.382,477.091,360.727,481.745,360.727,487.564z" id="el_HuZ0k1OuXcI"/>
<path d="M360.727,326.982L360.727,326.982c-45.382-1.164-81.455,36.073-81.455,80.291h1.164&#10;&#9;c5.818,0,10.473-4.655,11.636-10.473c2.327-16.291,10.473-31.418,22.109-41.891c9.309-9.309,22.109-15.127,36.073-17.455&#10;&#9;C356.073,337.455,360.727,332.8,360.727,326.982z" id="el_pYOpcf1CHtC"/>
<path d="M310.691,415.418c0-32.582,25.6-58.182,58.182-58.182c13.964,0,26.764,4.655,37.236,13.964&#10;&#9;c-11.636-13.964-26.764-22.109-45.382-22.109c-32.582,0-58.182,25.6-58.182,58.182c0,18.618,8.145,33.745,20.945,44.218&#10;&#9;C315.345,442.182,310.691,429.382,310.691,415.418z" id="el_CNutAxkvNiA"/>
<path d="M395.636,443.345c-1.164,0-2.327,0-3.491-1.164c-2.327-2.327-2.327-5.818,0-8.145&#10;&#9;c6.982-6.982,10.473-17.455,10.473-26.764c0-3.491,2.327-5.818,5.818-5.818s5.818,2.327,5.818,5.818c0,12.8-4.655,25.6-12.8,34.909&#10;&#9;C399.127,443.345,396.8,443.345,395.636,443.345z" id="el_bAQWJt2Z1kR"/>
<path d="M360.727,442.182c-6.982,0-11.636-4.655-11.636-11.636V384c0-6.982,4.655-11.636,11.636-11.636&#10;&#9;c6.982,0,11.636,4.655,11.636,11.636v46.545C372.364,437.527,367.709,442.182,360.727,442.182z" id="el_rnBABbWtIfZ"/>
<g id="el_30nKEBLTwDw">
</g>
<g id="el_rg5r-YHXGQr">
</g>
<g id="el_T7Jpp1T2_9j">
</g>
<g id="el_gKdZOgLB46b">
</g>
<g id="el_9XfT4eaWluU">
</g>
<g id="el_mrRxM53QTvV">
</g>
<g id="el_1lBlN35vfV5">
</g>
<g id="el_ZRR2f0qGWbp">
</g>
<g id="el_ne4IAd2dlEV">
</g>
<g id="el_ahwpM5NuSlm">
</g>
<g id="el_lIFjnlIz8Qw">
</g>
<g id="el_G0eKACu1qWi">
</g>
<g id="el_56XPRVHibjV">
</g>
<g id="el_7DbtMP2vqYv">
</g>
<g id="el_M-ywkoF3X-0">
</g>
</svg>