<svg height="512pt" viewBox="-60 0 512 512.001" width="512pt" xmlns="http://www.w3.org/2000/svg"><path d="m249.996094 195.640625s-59.316406 19.253906-59.316406 104.066406v149.855469c0 34.484375 27.953124 62.4375 62.4375 62.4375h56.195312c34.484375 0 62.441406-27.953125 62.441406-62.4375v-149.855469c0-84.8125-59.320312-104.066406-59.320312-104.066406zm0 0" fill="#ff94e6"/><path d="m312.433594 195.640625h-26.015625s59.320312 19.253906 59.320312 104.066406v149.855469.195312c-.066406 21.640626-18.027343 39.347657-39.671875 39.347657h-54.730468c-7.101563 0-12.082032-6.945313-9.867188-13.691407 2.675781-8.140624 4.125-16.828124 4.125-25.851562v-131.125c0-45.695312-9.445312-79.648438-22.980469-104.84375-15.546875 15.078125-31.933593 41.539062-31.933593 86.113281v149.855469c0 34.574219 28.4375 62.4375 62.4375 62.4375h56.195312c34.484375 0 62.4375-27.953125 62.4375-62.4375v-149.855469c.003906-84.8125-59.316406-104.066406-59.316406-104.066406zm0 0" fill="#ff71d0"/><path d="m312.433594 195.640625h-62.4375v-41.625c0-11.496094 9.320312-20.8125 20.8125-20.8125h20.8125c11.496094 0 20.8125 9.316406 20.8125 20.8125zm0 0" fill="#ffe266"/><path d="m296.28125 133.746094c.34375 1.5.542969 3.054687.542969 4.660156v31.222656c0 5.746094-4.65625 10.402344-10.40625 10.402344h-36.421875v15.613281h62.4375v-41.628906c0-9.890625-6.902344-18.152344-16.152344-20.269531zm0 0" fill="#f9c450"/><path d="m316.597656 310.113281c0 19.542969-15.839844 35.382813-35.382812 35.382813-19.539063 0-35.382813-15.839844-35.382813-35.382813 0-19.539062 15.84375-35.382812 35.382813-35.382812 19.542968 0 35.382812 15.84375 35.382812 35.382812zm0 0" fill="#88e9ff"/><path d="m91.578125 41.625h41.625v41.628906h-41.625zm0 0" fill="#f2eed9"/><path d="m91.578125 41.625v12.488281h17.691406c5.746094 0 10.40625 4.660157 10.40625 10.40625v18.734375h13.527344v-41.628906zm0 0" fill="#e5ddbd"/><path d="m151.933594 141.527344v18.28125c0 7.136718 3.628906 13.824218 9.691406 17.589844 17.300781 10.753906 63.15625 44.300781 63.15625 141.039062v131.121094c0 34.484375-27.957031 62.441406-62.441406 62.441406h-99.898438c-34.484375 0-62.441406-27.957031-62.441406-62.441406v-131.121094c0-96.792969 45.441406-130.324219 63.023438-141.054688 6.140624-3.75 9.820312-10.480468 9.820312-17.675781v-18.179687zm0 0" fill="#88e9ff"/><path d="m161.625 177.398438c-6.0625-3.765626-9.691406-10.449219-9.691406-17.589844v-18.28125h-79.085938v18.179687c0 1.605469-.195312 3.183594-.546875 4.714844h42.382813c7.867187 0 14.875 4.925781 17.589844 12.308594 2.363281 6.4375 6.558593 12.148437 12.1875 16.371093 18.144531 13.617188 58.46875 49.207032 58.46875 137.824219v104.066407c0 28.738281-23.296876 52.03125-52.035157 52.03125h-138.40625c11.390625 15.164062 29.523438 24.976562 49.953125 24.976562h99.898438c34.484375 0 62.441406-27.953125 62.441406-62.4375v-131.125c0-96.738281-45.855469-130.285156-63.15625-141.039062zm0 0" fill="#2dd3f9"/><path d="m151.933594 141.527344h-79.085938c-4.597656 0-8.324218-3.726563-8.324218-8.324219v-39.542969c0-5.75 4.65625-10.40625 10.402343-10.40625h74.929688c5.746093 0 10.40625 4.65625 10.40625 10.40625v39.542969c0 4.597656-3.726563 8.324219-8.328125 8.324219zm0 0" fill="#f2eed9"/><path d="m149.851562 83.253906h-6.242187v33.300782c0 4.597656-3.726563 8.324218-8.324219 8.324218h-70.765625v8.324219c0 4.597656 3.726563 8.324219 8.324219 8.324219h79.089844c4.597656 0 8.324218-3.726563 8.324218-8.324219v-39.542969c.003907-5.75-4.65625-10.40625-10.40625-10.40625zm0 0" fill="#e5ddbd"/><path d="m195.496094 0h-114.324219c-11.496094 0-20.8125 9.316406-20.8125 20.8125s9.316406 20.8125 20.8125 20.8125h114.46875l5.132813 5.128906c4.0625 4.066406 10.652343 4.066406 14.714843 0l8.175781-8.175781c4.066407-4.0625 4.066407-10.652344 0-14.71875l-20.8125-20.8125c-1.949218-1.949219-4.597656-3.046875-7.355468-3.046875zm0 0" fill="#f2eed9"/><path d="m193.265625 24.976562h-132.488281c1.925781 9.5 10.324218 16.648438 20.394531 16.648438h114.46875l5.132813 5.128906c4.0625 4.066406 10.652343 4.066406 14.714843 0l4.089844-4.089844-11.59375-11.59375c-3.90625-3.902343-9.199219-6.09375-14.71875-6.09375zm0 0" fill="#e5ddbd"/><path d="m174.308594 340.8125c0-63.21875-27.953125-114.472656-62.4375-114.472656s-62.441406 51.253906-62.441406 114.472656c0 63.222656 27.957031 114.472656 62.441406 114.472656s62.4375-51.25 62.4375-114.472656zm0 0" fill="#ffe266"/><path d="m391.285156 90.535156c0 18.96875-15.375 34.34375-34.339844 34.34375-18.96875 0-34.34375-15.375-34.34375-34.34375 0-18.964844 15.375-34.339844 34.34375-34.339844 18.964844 0 34.339844 15.375 34.339844 34.339844zm0 0" fill="#c6e3f7"/><path d="m372.554688 59.953125c2.398437 4.683594 3.757812 9.988281 3.757812 15.609375 0 18.96875-15.375 34.34375-34.339844 34.34375-5.625 0-10.929687-1.363281-15.613281-3.757812 5.683594 11.117187 17.242187 18.730468 30.585937 18.730468 18.964844 0 34.339844-15.375 34.339844-34.34375 0-13.339844-7.613281-24.898437-18.730468-30.582031zm0 0" fill="#aacee0"/><path d="m312.195312 20.8125c0 11.496094-9.316406 20.8125-20.8125 20.8125-11.496093 0-20.8125-9.316406-20.8125-20.8125s9.316407-20.8125 20.8125-20.8125c11.496094 0 20.8125 9.316406 20.8125 20.8125zm0 0" fill="#c6e3f7"/><path d="m300.84375 2.277344c1.453125 2.839844 2.277344 6.050781 2.277344 9.460937 0 11.496094-9.320313 20.8125-20.8125 20.8125-3.410156 0-6.625-.824219-9.464844-2.277343 3.449219 6.738281 10.453125 11.351562 18.539062 11.351562 11.492188 0 20.8125-9.316406 20.8125-20.8125 0-8.085938-4.613281-15.089844-11.351562-18.535156zm0 0" fill="#aacee0"/></svg>