<svg version="1.1" id="el_VRnSgfyx5" xmlns="http://www.w3.org/2000/svg" xmlns:xlink="http://www.w3.org/1999/xlink" x="0px" y="0px" viewBox="0 0 512 512" style="enable-background:new 0 0 512.001 512.001;" xml:space="preserve"><style>@-webkit-keyframes kf_el_6Q0KoB_GAX_an_Vnz6onvBw{0%{-webkit-transform: translate(288.1018371582031px, 217.24375915527344px) rotate(0deg) translate(-288.1018371582031px, -217.24375915527344px);transform: translate(288.1018371582031px, 217.24375915527344px) rotate(0deg) translate(-288.1018371582031px, -217.24375915527344px);}33.33%{-webkit-transform: translate(288.1018371582031px, 217.24375915527344px) rotate(-10deg) translate(-288.1018371582031px, -217.24375915527344px);transform: translate(288.1018371582031px, 217.24375915527344px) rotate(-10deg) translate(-288.1018371582031px, -217.24375915527344px);}61.11%{-webkit-transform: translate(288.1018371582031px, 217.24375915527344px) rotate(0deg) translate(-288.1018371582031px, -217.24375915527344px);transform: translate(288.1018371582031px, 217.24375915527344px) rotate(0deg) translate(-288.1018371582031px, -217.24375915527344px);}100%{-webkit-transform: translate(288.1018371582031px, 217.24375915527344px) rotate(10deg) translate(-288.1018371582031px, -217.24375915527344px);transform: translate(288.1018371582031px, 217.24375915527344px) rotate(10deg) translate(-288.1018371582031px, -217.24375915527344px);}}@keyframes kf_el_6Q0KoB_GAX_an_Vnz6onvBw{0%{-webkit-transform: translate(288.1018371582031px, 217.24375915527344px) rotate(0deg) translate(-288.1018371582031px, -217.24375915527344px);transform: translate(288.1018371582031px, 217.24375915527344px) rotate(0deg) translate(-288.1018371582031px, -217.24375915527344px);}33.33%{-webkit-transform: translate(288.1018371582031px, 217.24375915527344px) rotate(-10deg) translate(-288.1018371582031px, -217.24375915527344px);transform: translate(288.1018371582031px, 217.24375915527344px) rotate(-10deg) translate(-288.1018371582031px, -217.24375915527344px);}61.11%{-webkit-transform: translate(288.1018371582031px, 217.24375915527344px) rotate(0deg) translate(-288.1018371582031px, -217.24375915527344px);transform: translate(288.1018371582031px, 217.24375915527344px) rotate(0deg) translate(-288.1018371582031px, -217.24375915527344px);}100%{-webkit-transform: translate(288.1018371582031px, 217.24375915527344px) rotate(10deg) translate(-288.1018371582031px, -217.24375915527344px);transform: translate(288.1018371582031px, 217.24375915527344px) rotate(10deg) translate(-288.1018371582031px, -217.24375915527344px);}}@-webkit-keyframes kf_el_dVG1wSRwgs_an_p9TG0YGXl{0%{-webkit-transform: translate(269.04058837890625px, 192.3139934539795px) rotate(0deg) translate(-269.04058837890625px, -192.3139934539795px);transform: translate(269.04058837890625px, 192.3139934539795px) rotate(0deg) translate(-269.04058837890625px, -192.3139934539795px);}33.33%{-webkit-transform: translate(269.04058837890625px, 192.3139934539795px) rotate(-10deg) translate(-269.04058837890625px, -192.3139934539795px);transform: translate(269.04058837890625px, 192.3139934539795px) rotate(-10deg) translate(-269.04058837890625px, -192.3139934539795px);}61.11%{-webkit-transform: translate(269.04058837890625px, 192.3139934539795px) rotate(0deg) translate(-269.04058837890625px, -192.3139934539795px);transform: translate(269.04058837890625px, 192.3139934539795px) rotate(0deg) translate(-269.04058837890625px, -192.3139934539795px);}100%{-webkit-transform: translate(269.04058837890625px, 192.3139934539795px) rotate(10deg) translate(-269.04058837890625px, -192.3139934539795px);transform: translate(269.04058837890625px, 192.3139934539795px) rotate(10deg) translate(-269.04058837890625px, -192.3139934539795px);}}@keyframes kf_el_dVG1wSRwgs_an_p9TG0YGXl{0%{-webkit-transform: translate(269.04058837890625px, 192.3139934539795px) rotate(0deg) translate(-269.04058837890625px, -192.3139934539795px);transform: translate(269.04058837890625px, 192.3139934539795px) rotate(0deg) translate(-269.04058837890625px, -192.3139934539795px);}33.33%{-webkit-transform: translate(269.04058837890625px, 192.3139934539795px) rotate(-10deg) translate(-269.04058837890625px, -192.3139934539795px);transform: translate(269.04058837890625px, 192.3139934539795px) rotate(-10deg) translate(-269.04058837890625px, -192.3139934539795px);}61.11%{-webkit-transform: translate(269.04058837890625px, 192.3139934539795px) rotate(0deg) translate(-269.04058837890625px, -192.3139934539795px);transform: translate(269.04058837890625px, 192.3139934539795px) rotate(0deg) translate(-269.04058837890625px, -192.3139934539795px);}100%{-webkit-transform: translate(269.04058837890625px, 192.3139934539795px) rotate(10deg) translate(-269.04058837890625px, -192.3139934539795px);transform: translate(269.04058837890625px, 192.3139934539795px) rotate(10deg) translate(-269.04058837890625px, -192.3139934539795px);}}@-webkit-keyframes kf_el_jqyGeZr7TH_an_PJAYEERao{0%{-webkit-transform: translate(288.10247802734375px, 217.24359130859375px) rotate(0deg) translate(-288.10247802734375px, -217.24359130859375px);transform: translate(288.10247802734375px, 217.24359130859375px) rotate(0deg) translate(-288.10247802734375px, -217.24359130859375px);}33.33%{-webkit-transform: translate(288.10247802734375px, 217.24359130859375px) rotate(-10deg) translate(-288.10247802734375px, -217.24359130859375px);transform: translate(288.10247802734375px, 217.24359130859375px) rotate(-10deg) translate(-288.10247802734375px, -217.24359130859375px);}61.11%{-webkit-transform: translate(288.10247802734375px, 217.24359130859375px) rotate(0deg) translate(-288.10247802734375px, -217.24359130859375px);transform: translate(288.10247802734375px, 217.24359130859375px) rotate(0deg) translate(-288.10247802734375px, -217.24359130859375px);}100%{-webkit-transform: translate(288.10247802734375px, 217.24359130859375px) rotate(10deg) translate(-288.10247802734375px, -217.24359130859375px);transform: translate(288.10247802734375px, 217.24359130859375px) rotate(10deg) translate(-288.10247802734375px, -217.24359130859375px);}}@keyframes kf_el_jqyGeZr7TH_an_PJAYEERao{0%{-webkit-transform: translate(288.10247802734375px, 217.24359130859375px) rotate(0deg) translate(-288.10247802734375px, -217.24359130859375px);transform: translate(288.10247802734375px, 217.24359130859375px) rotate(0deg) translate(-288.10247802734375px, -217.24359130859375px);}33.33%{-webkit-transform: translate(288.10247802734375px, 217.24359130859375px) rotate(-10deg) translate(-288.10247802734375px, -217.24359130859375px);transform: translate(288.10247802734375px, 217.24359130859375px) rotate(-10deg) translate(-288.10247802734375px, -217.24359130859375px);}61.11%{-webkit-transform: translate(288.10247802734375px, 217.24359130859375px) rotate(0deg) translate(-288.10247802734375px, -217.24359130859375px);transform: translate(288.10247802734375px, 217.24359130859375px) rotate(0deg) translate(-288.10247802734375px, -217.24359130859375px);}100%{-webkit-transform: translate(288.10247802734375px, 217.24359130859375px) rotate(10deg) translate(-288.10247802734375px, -217.24359130859375px);transform: translate(288.10247802734375px, 217.24359130859375px) rotate(10deg) translate(-288.10247802734375px, -217.24359130859375px);}}@-webkit-keyframes kf_el_Bg_N4jvEeh_an_Q59GH_khN{0%{-webkit-transform: translate(274.114501953125px, 192.31301307678223px) rotate(0deg) translate(-274.114501953125px, -192.31301307678223px);transform: translate(274.114501953125px, 192.31301307678223px) rotate(0deg) translate(-274.114501953125px, -192.31301307678223px);}33.33%{-webkit-transform: translate(274.114501953125px, 192.31301307678223px) rotate(20deg) translate(-274.114501953125px, -192.31301307678223px);transform: translate(274.114501953125px, 192.31301307678223px) rotate(20deg) translate(-274.114501953125px, -192.31301307678223px);}61.11%{-webkit-transform: translate(274.114501953125px, 192.31301307678223px) rotate(0deg) translate(-274.114501953125px, -192.31301307678223px);transform: translate(274.114501953125px, 192.31301307678223px) rotate(0deg) translate(-274.114501953125px, -192.31301307678223px);}100%{-webkit-transform: translate(274.114501953125px, 192.31301307678223px) rotate(-20deg) translate(-274.114501953125px, -192.31301307678223px);transform: translate(274.114501953125px, 192.31301307678223px) rotate(-20deg) translate(-274.114501953125px, -192.31301307678223px);}}@keyframes kf_el_Bg_N4jvEeh_an_Q59GH_khN{0%{-webkit-transform: translate(274.114501953125px, 192.31301307678223px) rotate(0deg) translate(-274.114501953125px, -192.31301307678223px);transform: translate(274.114501953125px, 192.31301307678223px) rotate(0deg) translate(-274.114501953125px, -192.31301307678223px);}33.33%{-webkit-transform: translate(274.114501953125px, 192.31301307678223px) rotate(20deg) translate(-274.114501953125px, -192.31301307678223px);transform: translate(274.114501953125px, 192.31301307678223px) rotate(20deg) translate(-274.114501953125px, -192.31301307678223px);}61.11%{-webkit-transform: translate(274.114501953125px, 192.31301307678223px) rotate(0deg) translate(-274.114501953125px, -192.31301307678223px);transform: translate(274.114501953125px, 192.31301307678223px) rotate(0deg) translate(-274.114501953125px, -192.31301307678223px);}100%{-webkit-transform: translate(274.114501953125px, 192.31301307678223px) rotate(-20deg) translate(-274.114501953125px, -192.31301307678223px);transform: translate(274.114501953125px, 192.31301307678223px) rotate(-20deg) translate(-274.114501953125px, -192.31301307678223px);}}@-webkit-keyframes kf_el_QTqmoFOYiu_an_4Pe-25EGz{0%{-webkit-transform: translate(237.9992218017578px, 368.93999099731445px) rotate(0deg) translate(-237.9992218017578px, -368.93999099731445px);transform: translate(237.9992218017578px, 368.93999099731445px) rotate(0deg) translate(-237.9992218017578px, -368.93999099731445px);}33.33%{-webkit-transform: translate(237.9992218017578px, 368.93999099731445px) rotate(10deg) translate(-237.9992218017578px, -368.93999099731445px);transform: translate(237.9992218017578px, 368.93999099731445px) rotate(10deg) translate(-237.9992218017578px, -368.93999099731445px);}61.11%{-webkit-transform: translate(237.9992218017578px, 368.93999099731445px) rotate(0deg) translate(-237.9992218017578px, -368.93999099731445px);transform: translate(237.9992218017578px, 368.93999099731445px) rotate(0deg) translate(-237.9992218017578px, -368.93999099731445px);}100%{-webkit-transform: translate(237.9992218017578px, 368.93999099731445px) rotate(-10deg) translate(-237.9992218017578px, -368.93999099731445px);transform: translate(237.9992218017578px, 368.93999099731445px) rotate(-10deg) translate(-237.9992218017578px, -368.93999099731445px);}}@keyframes kf_el_QTqmoFOYiu_an_4Pe-25EGz{0%{-webkit-transform: translate(237.9992218017578px, 368.93999099731445px) rotate(0deg) translate(-237.9992218017578px, -368.93999099731445px);transform: translate(237.9992218017578px, 368.93999099731445px) rotate(0deg) translate(-237.9992218017578px, -368.93999099731445px);}33.33%{-webkit-transform: translate(237.9992218017578px, 368.93999099731445px) rotate(10deg) translate(-237.9992218017578px, -368.93999099731445px);transform: translate(237.9992218017578px, 368.93999099731445px) rotate(10deg) translate(-237.9992218017578px, -368.93999099731445px);}61.11%{-webkit-transform: translate(237.9992218017578px, 368.93999099731445px) rotate(0deg) translate(-237.9992218017578px, -368.93999099731445px);transform: translate(237.9992218017578px, 368.93999099731445px) rotate(0deg) translate(-237.9992218017578px, -368.93999099731445px);}100%{-webkit-transform: translate(237.9992218017578px, 368.93999099731445px) rotate(-10deg) translate(-237.9992218017578px, -368.93999099731445px);transform: translate(237.9992218017578px, 368.93999099731445px) rotate(-10deg) translate(-237.9992218017578px, -368.93999099731445px);}}#el_VRnSgfyx5 *{-webkit-animation-duration: 3s;animation-duration: 3s;-webkit-animation-iteration-count: infinite;animation-iteration-count: infinite;-webkit-animation-timing-function: cubic-bezier(0, 0, 1, 1);animation-timing-function: cubic-bezier(0, 0, 1, 1);}#el_jqyGeZr7TH{fill: #6DC82A;}#el_6Q0KoB_GAX{fill: #5EAC24;}#el_dVG1wSRwgs{fill: #4E901E;}#el_QTqmoFOYiu{fill: #91DC5A;}#el_Bg_N4jvEeh{fill: #5EAC24;}#el_h0XoaLISJ1{fill: #CC7400;}#el_W-j2JinaVv{fill: #AA6100;}#el_0JTdII10ir{fill: #AA6100;}#el_iOZxPmxB9O{fill: #AA6100;}#el_eoHAZ5fl0l{fill: #AA6100;}#el_qXG0sEutY-{fill: #AA6100;}#el_lj9rJ98mCs{fill: #AA6100;}#el_wC9YILUUUH{fill: #AA6100;}#el_z-7Zn55bLEp{fill: #CC7400;}#el_2F9yoZyV_nZ{fill: #CC7400;}#el_jtdnGtVyWYE{fill: #CC7400;}#el_MKxVBkIBfqB{fill: #AA6100;}#el_rDsUF8XoIyW{fill: #AA6100;}#el_QTqmoFOYiu_an_4Pe-25EGz{-webkit-animation-fill-mode: backwards;animation-fill-mode: backwards;-webkit-transform: translate(237.9992218017578px, 368.93999099731445px) rotate(0deg) translate(-237.9992218017578px, -368.93999099731445px);transform: translate(237.9992218017578px, 368.93999099731445px) rotate(0deg) translate(-237.9992218017578px, -368.93999099731445px);-webkit-animation-name: kf_el_QTqmoFOYiu_an_4Pe-25EGz;animation-name: kf_el_QTqmoFOYiu_an_4Pe-25EGz;-webkit-animation-timing-function: cubic-bezier(0, 0, 1, 1);animation-timing-function: cubic-bezier(0, 0, 1, 1);}#el_Bg_N4jvEeh_an_Q59GH_khN{-webkit-animation-fill-mode: backwards;animation-fill-mode: backwards;-webkit-transform: translate(274.114501953125px, 192.31301307678223px) rotate(0deg) translate(-274.114501953125px, -192.31301307678223px);transform: translate(274.114501953125px, 192.31301307678223px) rotate(0deg) translate(-274.114501953125px, -192.31301307678223px);-webkit-animation-name: kf_el_Bg_N4jvEeh_an_Q59GH_khN;animation-name: kf_el_Bg_N4jvEeh_an_Q59GH_khN;-webkit-animation-timing-function: cubic-bezier(0, 0, 1, 1);animation-timing-function: cubic-bezier(0, 0, 1, 1);}#el_jqyGeZr7TH_an_PJAYEERao{-webkit-animation-fill-mode: backwards;animation-fill-mode: backwards;-webkit-transform: translate(288.10247802734375px, 217.24359130859375px) rotate(0deg) translate(-288.10247802734375px, -217.24359130859375px);transform: translate(288.10247802734375px, 217.24359130859375px) rotate(0deg) translate(-288.10247802734375px, -217.24359130859375px);-webkit-animation-name: kf_el_jqyGeZr7TH_an_PJAYEERao;animation-name: kf_el_jqyGeZr7TH_an_PJAYEERao;-webkit-animation-timing-function: cubic-bezier(0, 0, 1, 1);animation-timing-function: cubic-bezier(0, 0, 1, 1);}#el_dVG1wSRwgs_an_p9TG0YGXl{-webkit-animation-fill-mode: backwards;animation-fill-mode: backwards;-webkit-transform: translate(269.04058837890625px, 192.3139934539795px) rotate(0deg) translate(-269.04058837890625px, -192.3139934539795px);transform: translate(269.04058837890625px, 192.3139934539795px) rotate(0deg) translate(-269.04058837890625px, -192.3139934539795px);-webkit-animation-name: kf_el_dVG1wSRwgs_an_p9TG0YGXl;animation-name: kf_el_dVG1wSRwgs_an_p9TG0YGXl;-webkit-animation-timing-function: cubic-bezier(0, 0, 1, 1);animation-timing-function: cubic-bezier(0, 0, 1, 1);}#el_6Q0KoB_GAX_an_Vnz6onvBw{-webkit-animation-fill-mode: backwards;animation-fill-mode: backwards;-webkit-transform: translate(288.1018371582031px, 217.24375915527344px) rotate(0deg) translate(-288.1018371582031px, -217.24375915527344px);transform: translate(288.1018371582031px, 217.24375915527344px) rotate(0deg) translate(-288.1018371582031px, -217.24375915527344px);-webkit-animation-name: kf_el_6Q0KoB_GAX_an_Vnz6onvBw;animation-name: kf_el_6Q0KoB_GAX_an_Vnz6onvBw;-webkit-animation-timing-function: cubic-bezier(0, 0, 1, 1);animation-timing-function: cubic-bezier(0, 0, 1, 1);}</style>
<g id="el_jqyGeZr7TH_an_PJAYEERao" data-animator-group="true" data-animator-type="1"><path d="M282.915,211.33c-3.863,4.077-9.324,6.225-14.941,5.877c-1.943-0.123-48.129-3.298-95.369-28.754&#10;&#9;c-44.641-24.056-98.511-72.868-101.639-168.804c-0.172-5.232,1.831-10.3,5.531-14.002C82.141,0,88.765,0,91.594,0&#10;&#9;c0.001,0,0.001,0,0.001,0c2.001,0,49.045,0.338,97.518,29.403c25.163,15.089,46.083,35.148,62.181,59.622&#10;&#9;c19.446,29.566,31.786,65.589,36.678,107.066C288.63,201.671,286.777,207.252,282.915,211.33z" id="el_jqyGeZr7TH"/></g>
<g id="el_6Q0KoB_GAX_an_Vnz6onvBw" data-animator-group="true" data-animator-type="1"><path d="M251.887,89.963c-7.938,14.65-14.633,31.15-19.437,49.738c-4.32,12.902-10.917,35.57-16.362,66.933&#10;&#9;c28.719,8.988,50.563,10.49,51.886,10.573c5.618,0.349,11.078-1.799,14.941-5.877c3.862-4.078,5.715-9.659,5.056-15.237&#10;&#9;C283.13,155.048,270.983,119.354,251.887,89.963z" id="el_6Q0KoB_GAX"/></g>
<g id="el_dVG1wSRwgs_an_p9TG0YGXl" data-animator-group="true" data-animator-type="1"><path d="M266.674,178.855l-40.788-39.775L215.13,85.482c-0.851-4.248-4.984-6.997-9.233-6.147&#10;&#9;c-4.248,0.852-6.998,4.987-6.147,9.233l6.245,31.116L183.5,97.748l-10.904-54.335c-0.851-4.248-4.986-6.994-9.233-6.147&#10;&#9;c-4.248,0.852-6.998,4.986-6.147,9.233l6.392,31.852l-52.492-51.184c-3.104-3.024-8.066-2.96-11.091,0.14&#10;&#9;c-3.024,3.102-2.961,8.067,0.14,11.09l57.719,56.284l-40.264-0.688c-4.327-0.118-7.901,3.377-7.976,7.708&#10;&#9;c-0.073,4.331,3.377,7.901,7.708,7.976l56.907,0.973l26.775,26.11l-40.88-0.697c-4.292-0.096-7.901,3.377-7.976,7.708&#10;&#9;c-0.073,4.331,3.377,7.901,7.708,7.976l57.522,0.982l38.311,37.358c1.526,1.487,3.501,2.227,5.474,2.227&#10;&#9;c2.04,0,4.078-0.792,5.617-2.368C269.837,186.843,269.775,181.878,266.674,178.855z" id="el_dVG1wSRwgs"/></g>
<g id="el_QTqmoFOYiu_an_4Pe-25EGz" data-animator-group="true" data-animator-type="1"><path d="M467.824,5.914c-3.863-4.077-9.324-6.225-14.941-5.877c-1.943,0.123-48.129,3.298-95.369,28.754&#10;&#9;c-36.301,19.561-78.701,55.493-94.961,119.819c-8.881,26.153-28.446,97.078-23.87,203.868c0.396,9.239,8.01,16.463,17.17,16.462&#10;&#9;c0.248,0,0.498-0.005,0.749-0.016c9.489-0.407,16.852-8.428,16.446-17.919c-2.371-55.323,2.184-100.55,8.054-133.923&#10;&#9;c13.209-0.757,52.566-5.045,92.92-29.241c25.163-15.089,46.083-35.148,62.181-59.622c19.446-29.566,31.786-65.589,36.678-107.066&#10;&#9;C473.539,15.573,471.686,9.992,467.824,5.914z" id="el_QTqmoFOYiu"/></g>
<g id="el_Bg_N4jvEeh_an_Q59GH_khN" data-animator-group="true" data-animator-type="1"><path d="M443.129,27.307c-3.026-3.101-7.991-3.164-11.091-0.14L379.55,78.35l6.392-31.851&#10;&#9;c0.851-4.247-1.899-8.38-6.147-9.233c-4.242-0.848-8.381,1.899-9.233,6.147l-10.905,54.335l-22.494,21.936l6.245-31.116&#10;&#9;c0.852-4.247-1.899-8.38-6.147-9.233c-4.246-0.85-8.381,1.899-9.233,6.147l-10.757,53.599l-40.789,39.775&#10;&#9;c-3.102,3.024-3.163,7.989-0.14,11.09c1.538,1.576,3.575,2.367,5.617,2.367c1.974,0,3.95-0.74,5.474-2.227l38.311-37.358&#10;&#9;l57.524-0.982c4.331-0.074,7.781-3.644,7.708-7.976c-0.073-4.286-3.57-7.709-7.839-7.709c-0.046,0-0.092,0-0.137,0.001&#10;&#9;l-40.881,0.697l26.775-26.11l56.907-0.973c4.331-0.074,7.781-3.644,7.708-7.976c-0.073-4.286-3.57-7.709-7.839-7.709&#10;&#9;c-0.046,0-0.092,0-0.137,0.001l-40.264,0.688l57.719-56.284C446.091,35.373,446.153,30.408,443.129,27.307z" id="el_Bg_N4jvEeh"/></g>
<path d="M449.193,410.125c-7.91,0-15.298,2.228-21.577,6.087c-9.274-30.342-37.491-52.414-70.869-52.414&#10;&#9;c-3.704,0-7.341,0.28-10.898,0.805c-15.13-34.614-49.655-58.813-89.846-58.813s-74.716,24.199-89.846,58.813&#10;&#9;c-3.558-0.525-7.196-0.805-10.898-0.805c-33.378,0-61.594,22.072-70.869,52.414c-6.279-3.859-13.666-6.087-21.577-6.087&#10;&#9;c-22.795,0-41.275,18.48-41.275,41.275s18.48,41.275,41.275,41.275c12.216,0,23.188-5.31,30.744-13.744&#10;&#9;c13.282,19.931,35.954,33.07,61.701,33.07c20.851,0,39.68-8.625,53.144-22.487c14.097,7.848,30.321,12.334,47.601,12.334&#10;&#9;c17.279,0,33.504-4.487,47.601-12.334c13.466,13.862,32.293,22.487,53.144,22.487c25.747,0,48.42-13.137,61.701-33.07&#10;&#9;c7.557,8.434,18.529,13.744,30.744,13.744c22.795,0,41.275-18.48,41.275-41.275C490.468,428.604,471.988,410.125,449.193,410.125z" id="el_h0XoaLISJ1"/>
<g id="el_14Fvm2duUb">
	<path d="M309.888,345.918c9.748,0,19.154,1.443,28.042,4.092c-17.525-26.63-47.666-44.221-81.928-44.221&#10;&#9;&#9;c-40.192,0-74.716,24.199-89.846,58.813c-3.558-0.525-7.196-0.805-10.898-0.805c-33.378,0-61.594,22.072-70.869,52.414&#10;&#9;&#9;c-6.279-3.859-13.666-6.087-21.577-6.087c-22.795,0-41.275,18.48-41.275,41.275c0,22.795,18.48,41.275,41.275,41.275&#10;&#9;&#9;c12.216,0,23.188-5.31,30.744-13.744c13.282,19.931,35.954,33.07,61.701,33.07c20.851,0,39.68-8.625,53.144-22.487&#10;&#9;&#9;c6.148,3.423,12.7,6.204,19.567,8.255c-10.172-15.451-16.108-33.939-16.108-53.821C211.86,389.808,255.749,345.918,309.888,345.918&#10;&#9;&#9;z" id="el_W-j2JinaVv"/>
	<circle cx="294.986" cy="421.014" r="17.771" id="el_0JTdII10ir"/>
	<circle cx="366.638" cy="462.863" r="17.771" id="el_iOZxPmxB9O"/>
	<circle cx="355.71" cy="402.055" r="6.838" id="el_eoHAZ5fl0l"/>
	<circle cx="256.002" cy="469.702" r="6.838" id="el_qXG0sEutY-"/>
	<circle cx="277.209" cy="376.498" r="6.838" id="el_lj9rJ98mCs"/>
	<circle cx="424.351" cy="438.791" r="6.838" id="el_wC9YILUUUH"/>
</g>
<g id="el_gWNLPYYIR9">
	<circle cx="384.415" cy="317.216" r="17.771" id="el_z-7Zn55bLEp"/>
	<circle cx="424.351" cy="356.953" r="6.838" id="el_2F9yoZyV_nZ"/>
	<circle cx="424.351" cy="324.055" r="6.838" id="el_jtdnGtVyWYE"/>
</g>
<g id="el_emPe_JcMbwA">
	<circle cx="112.53" cy="310.942" r="17.771" id="el_MKxVBkIBfqB"/>
	<circle cx="83.02" cy="350.115" r="6.838" id="el_rDsUF8XoIyW"/>
</g>
<g id="el_JpZomQ8OqeZ">
</g>
<g id="el_bd90EKPnR7E">
</g>
<g id="el_uUK4hrA9hPP">
</g>
<g id="el_O1kpBTO1Z_I">
</g>
<g id="el_B41vNXO7PZe">
</g>
<g id="el_e6ef7nE7nU5">
</g>
<g id="el_M4As59C8813">
</g>
<g id="el_1depyrAs0JI">
</g>
<g id="el_M7T765oaXtX">
</g>
<g id="el_O1RD2FJCrBX">
</g>
<g id="el_r38Bm1yJKwk">
</g>
<g id="el_z2L4_fwquNM">
</g>
<g id="el_uxTN6g5DmxH">
</g>
<g id="el_38uooBH3Z9l">
</g>
<g id="el_0XG7oFDYm_1">
</g>
</svg>